<svg width="20" height="20" viewBox="0 0 20 20" fill="none" xmlns="http://www.w3.org/2000/svg">
    <g id="bi:chat-dots-fill">
        <path id="Vector"
              d="M20 8.79027C20 13.645 15.5225 17.5805 10 17.5805C9.00956 17.5819 8.02323 17.4527 7.06625 17.1963C6.33625 17.568 4.66 18.2812 1.84 18.7459C1.59 18.7861 1.4 18.5249 1.49875 18.2913C1.94125 17.2415 2.34125 15.8426 2.46125 14.5667C0.93 13.0222 0 11.0004 0 8.79027C0 3.93553 4.4775 0 10 0C15.5225 0 20 3.93553 20 8.79027ZM6.25 8.79027C6.25 8.45722 6.1183 8.13782 5.88388 7.90232C5.64946 7.66682 5.33152 7.53452 5 7.53452C4.66848 7.53452 4.35054 7.66682 4.11612 7.90232C3.8817 8.13782 3.75 8.45722 3.75 8.79027C3.75 9.12332 3.8817 9.44272 4.11612 9.67822C4.35054 9.91372 4.66848 10.046 5 10.046C5.33152 10.046 5.64946 9.91372 5.88388 9.67822C6.1183 9.44272 6.25 9.12332 6.25 8.79027ZM11.25 8.79027C11.25 8.45722 11.1183 8.13782 10.8839 7.90232C10.6495 7.66682 10.3315 7.53452 10 7.53452C9.66848 7.53452 9.35054 7.66682 9.11612 7.90232C8.8817 8.13782 8.75 8.45722 8.75 8.79027C8.75 9.12332 8.8817 9.44272 9.11612 9.67822C9.35054 9.91372 9.66848 10.046 10 10.046C10.3315 10.046 10.6495 9.91372 10.8839 9.67822C11.1183 9.44272 11.25 9.12332 11.25 8.79027ZM15 10.046C15.3315 10.046 15.6495 9.91372 15.8839 9.67822C16.1183 9.44272 16.25 9.12332 16.25 8.79027C16.25 8.45722 16.1183 8.13782 15.8839 7.90232C15.6495 7.66682 15.3315 7.53452 15 7.53452C14.6685 7.53452 14.3505 7.66682 14.1161 7.90232C13.8817 8.13782 13.75 8.45722 13.75 8.79027C13.75 9.12332 13.8817 9.44272 14.1161 9.67822C14.3505 9.91372 14.6685 10.046 15 10.046Z"
              fill="white"/>
    </g>
</svg>
