<svg width="12" height="11" viewBox="0 0 12 11" fill="none" xmlns="http://www.w3.org/2000/svg">
    <g id="bi:youtube" clip-path="url(#clip0_423_676)">
        <path id="Vector"
              d="M6.03325 1.521H6.09129C6.62738 1.52295 9.34368 1.54252 10.0761 1.73947C10.2975 1.79958 10.4992 1.91675 10.6612 2.07926C10.8231 2.24177 10.9396 2.44394 10.9989 2.66556C11.0648 2.91339 11.1111 3.24143 11.1424 3.57991L11.1489 3.64774L11.1632 3.8173L11.1685 3.88513C11.2109 4.48121 11.2161 5.03947 11.2167 5.16143V5.21034C11.2161 5.33687 11.2102 5.93295 11.1632 6.55382L11.158 6.6223L11.1522 6.69013C11.1195 7.06317 11.0713 7.43361 10.9989 7.70621C10.9397 7.92792 10.8234 8.13019 10.6614 8.29273C10.4994 8.45527 10.2976 8.57237 10.0761 8.6323C9.31955 8.83578 6.44411 8.85013 6.04564 8.85078H5.95303C5.75151 8.85078 4.91803 8.84687 4.04411 8.81687L3.93324 8.81295L3.87651 8.81034L3.76498 8.80578L3.65346 8.80121C2.92955 8.76926 2.2402 8.71774 1.92259 8.63165C1.70117 8.57178 1.49937 8.45477 1.33741 8.29235C1.17545 8.12993 1.05901 7.9278 0.999767 7.70621C0.927375 7.43426 0.879115 7.06317 0.846506 6.69013L0.841288 6.62165L0.836071 6.55382C0.803885 6.11191 0.786049 5.66907 0.782593 5.226L0.782593 5.14578C0.783897 5.00556 0.789115 4.521 0.824332 3.98621L0.828897 3.91904L0.830854 3.88513L0.836071 3.8173L0.850419 3.64774L0.856941 3.57991C0.888245 3.24143 0.934549 2.91274 1.00042 2.66556C1.05957 2.44385 1.17596 2.24159 1.33793 2.07905C1.4999 1.91651 1.70175 1.7994 1.92324 1.73947C2.24085 1.65469 2.9302 1.60252 3.65411 1.56991L3.76498 1.56534L3.87716 1.56143L3.93324 1.55947L4.04477 1.55491C4.66545 1.53494 5.28638 1.52385 5.90738 1.52165H6.03325V1.521ZM4.95651 3.61447V6.75665L7.66759 5.18621L4.95651 3.61447Z"
              fill="white"/>
    </g>
    <defs>
        <clipPath id="clip0_423_676">
            <rect width="10.4348" height="10.4348" fill="white" transform="translate(0.782593 0.217285)"/>
        </clipPath>
    </defs>
</svg>
