<svg width="46" height="46" viewBox="0 0 46 46" fill="none" xmlns="http://www.w3.org/2000/svg">
    <rect x="0.5" y="0.5" width="45" height="45" rx="22.5" fill="#3372B7" stroke="#3372B7"/>
    <g clip-path="url(#clip0_423_760)">
        <path d="M23.0667 18.1051C24.7906 18.1051 26.5157 18.1121 28.2396 18.0993C28.5669 18.097 28.7916 18.1911 28.991 18.4698C29.8184 19.6265 30.663 20.7715 31.5089 21.9142C31.7128 22.1895 31.7048 22.4217 31.4904 22.69C28.8561 25.9869 26.2276 29.2897 23.5957 32.5878C23.1566 33.1382 22.948 33.1371 22.5055 32.5808C19.9266 29.3501 17.3499 26.117 14.7755 22.8828C14.3446 22.3416 14.3469 22.2649 14.7444 21.7215C15.5326 20.6426 16.3289 19.5707 17.1056 18.4826C17.3015 18.2085 17.5181 18.0959 17.85 18.0982C19.5901 18.1121 21.3278 18.1051 23.0667 18.1051ZM30.2793 21.8295C29.6374 20.9515 29.052 20.1746 28.4966 19.3745C28.3261 19.1283 28.1428 19.0586 27.8651 19.0597C24.657 19.0679 21.45 19.0679 18.2418 19.0597C17.9641 19.0586 17.7809 19.1294 17.6103 19.3745C17.0365 20.2001 16.4315 21.0038 15.8392 21.8155C15.7239 21.9735 15.6098 22.1326 15.4992 22.2858C18.0298 25.4609 20.5304 28.5964 23.0552 31.7644C25.4532 28.7543 27.8075 25.7988 30.2286 22.7597C29.967 22.7597 29.8161 22.7597 29.6651 22.7597C28.9725 22.7585 28.28 22.762 27.5886 22.7539C27.3074 22.7504 27.1288 22.5924 27.1265 22.2986C27.1242 22.0048 27.297 21.8515 27.5793 21.8353C27.7061 21.8283 27.834 21.8295 27.9608 21.8295C28.6925 21.8295 29.4254 21.8295 30.2793 21.8295Z" fill="white"/>
        <path d="M24.8413 15.3308C24.5094 15.3308 24.2433 15.3343 23.9771 15.3296C23.6913 15.325 23.4758 15.1438 23.5173 14.8837C23.5461 14.6979 23.7616 14.4598 23.9425 14.4006C24.1972 14.3181 24.4968 14.3797 24.8402 14.3797C24.8402 14.0998 24.8402 13.8594 24.8402 13.6202C24.8402 13.2741 24.9612 12.9896 25.3322 13C25.6756 13.0105 25.7932 13.2776 25.777 13.6132C25.7667 13.8431 25.7747 14.0731 25.7747 14.3715C26.0467 14.3715 26.2944 14.3681 26.5422 14.3727C26.8556 14.3785 27.1241 14.4853 27.123 14.8546C27.1218 15.217 26.8764 15.3412 26.548 15.3331C26.3106 15.3273 26.072 15.3319 25.7747 15.3319C25.7747 15.613 25.769 15.8685 25.7759 16.1228C25.7851 16.4596 25.663 16.7116 25.3126 16.7151C24.9531 16.7185 24.8471 16.4445 24.8413 16.1216C24.8379 15.8789 24.8413 15.635 24.8413 15.3308Z" fill="white"/>
        <path d="M15.3413 17.183C15.0302 17.183 14.7663 17.183 14.5024 17.183C14.1994 17.183 14.0012 17.0204 14 16.7197C13.9989 16.4189 14.1959 16.2551 14.5001 16.2551C14.764 16.2551 15.0279 16.2551 15.339 16.2551C15.339 15.9265 15.3252 15.6536 15.3425 15.383C15.3621 15.0718 15.5038 14.85 15.8438 14.8709C16.1584 14.8906 16.2724 15.1055 16.2713 15.4051C16.2701 15.6652 16.2713 15.9242 16.2713 16.2528C16.5709 16.2528 16.8463 16.2493 17.1229 16.254C17.4179 16.2586 17.6207 16.398 17.6219 16.7173C17.6219 17.0367 17.4213 17.1761 17.1252 17.1807C16.8601 17.1842 16.5951 17.1819 16.2713 17.1819C16.2713 17.5059 16.2748 17.7892 16.2701 18.0737C16.2655 18.3583 16.1365 18.5464 15.8461 18.5673C15.5292 18.5894 15.3736 18.3896 15.3471 18.0993C15.3206 17.8148 15.3413 17.5256 15.3413 17.183Z" fill="white"/>
        <path d="M30.7471 17.6708C30.4475 17.6708 30.2228 17.6731 29.9981 17.6696C29.6697 17.6638 29.392 17.5709 29.4012 17.1656C29.4104 16.7859 29.6708 16.7011 29.9889 16.7092C30.2251 16.715 30.4602 16.7104 30.7483 16.7104C30.7483 16.3806 30.7437 16.0937 30.7494 15.8092C30.7552 15.5224 30.8958 15.3319 31.1816 15.325C31.4916 15.3168 31.6391 15.5119 31.646 15.8197C31.6517 16.0926 31.6471 16.3666 31.6471 16.7115C31.9514 16.7115 32.2268 16.7092 32.501 16.7127C32.7983 16.7162 32.9908 16.8556 32.9977 17.1772C33.0046 17.5024 32.7972 17.6441 32.5149 17.665C32.2498 17.6847 31.9825 17.6696 31.6494 17.6696C31.6494 17.9739 31.646 18.2433 31.6506 18.5127C31.6552 18.8216 31.5088 19.0376 31.2161 19.0458C30.8981 19.0539 30.7425 18.8344 30.746 18.5058C30.7494 18.2468 30.7471 17.989 30.7471 17.6708Z" fill="white"/>
        <path d="M19.3746 21.8282C18.9747 21.3103 18.6474 20.8759 18.3086 20.4521C18.0966 20.1861 17.9272 19.9202 18.2314 19.6194C18.4631 19.3895 18.7281 19.4742 19.0381 19.8656C19.4633 20.4045 19.8839 20.9468 20.3368 21.5274C20.7274 21.0304 21.095 20.5601 21.4638 20.0897C21.5617 19.9655 21.6574 19.8401 21.7588 19.7193C21.9489 19.4917 22.1771 19.4022 22.4237 19.6055C22.6853 19.8203 22.653 20.0816 22.4606 20.3313C22.093 20.8086 21.7496 21.3126 21.3393 21.7492C20.9383 22.1754 20.8865 22.5587 21.0927 23.1254C21.8832 25.2924 22.6104 27.4826 23.3606 29.6647C23.379 29.7193 23.3905 29.7762 23.4113 29.8296C23.5369 30.1536 23.5887 30.4869 23.1981 30.6309C22.8028 30.7772 22.6519 30.4706 22.5401 30.1466C21.7461 27.8275 20.9429 25.5107 20.1605 23.1869C20.0499 22.8595 19.9058 22.7398 19.5601 22.7515C18.6705 22.7793 17.7797 22.7584 16.8901 22.7619C16.564 22.7631 16.2655 22.705 16.2644 22.2962C16.2644 21.8886 16.5594 21.8259 16.8878 21.8282C17.6783 21.8317 18.4665 21.8282 19.3746 21.8282Z" fill="white"/>
        <path d="M25.0914 22.7596C24.4207 22.7596 23.7904 22.7596 23.1601 22.7596C22.8351 22.7596 22.5101 22.7619 22.1852 22.7561C21.8867 22.7514 21.6897 22.6051 21.6943 22.2857C21.6989 21.9652 21.9051 21.8317 22.2013 21.8305C22.8789 21.8282 23.5576 21.8293 24.2352 21.8282C24.3873 21.8282 24.5383 21.8282 24.8022 21.8282C24.4046 21.3126 24.0693 20.8782 23.7362 20.4427C23.6671 20.3522 23.5496 20.25 23.5553 20.1606C23.568 19.9666 23.591 19.7204 23.7097 19.5985C23.9125 19.3918 24.1591 19.4858 24.3332 19.7042C24.7549 20.2302 25.1686 20.7621 25.5858 21.2917C25.6376 21.3567 25.6906 21.4206 25.7724 21.5193C26.1585 21.0257 26.5272 20.5554 26.8948 20.0851C26.9836 19.9724 27.0723 19.8598 27.161 19.7471C27.3546 19.5033 27.5885 19.386 27.8536 19.6066C28.1371 19.8412 28.0633 20.1095 27.8628 20.3673C27.509 20.819 27.1714 21.2859 26.8003 21.7213C26.3659 22.2312 26.064 22.799 25.8543 23.4424C25.376 24.9091 24.8575 26.3619 24.355 27.8205C24.3216 27.9158 24.2894 28.0121 24.2536 28.1062C24.1465 28.3814 23.9425 28.479 23.6763 28.4C23.3871 28.3141 23.3214 28.0714 23.3928 27.8101C23.4954 27.435 23.6325 27.0692 23.7604 26.7022C24.1649 25.5304 24.5705 24.3587 24.975 23.1869C25.0153 23.0685 25.0418 22.9454 25.0914 22.7596Z" fill="white"/>
    </g>
    <defs>
        <clipPath id="clip0_423_760">
            <rect width="19" height="20" fill="white" transform="translate(14 13)"/>
        </clipPath>
    </defs>
</svg>