<svg width="31" height="30" viewBox="0 0 31 30" fill="none" xmlns="http://www.w3.org/2000/svg">
    <g id="Frame">
        <path id="Vector"
              d="M24.0257 26.9998C23.1541 26.9998 21.9297 26.7004 20.0963 25.7275C17.8668 24.54 16.1424 23.4437 13.925 21.343C11.787 19.3136 10.7466 17.9997 9.29052 15.4831C7.64554 12.6415 7.92596 11.152 8.23941 10.5154C8.61271 9.75458 9.16371 9.29951 9.87591 8.84783C10.2804 8.59609 10.7085 8.3803 11.1547 8.20318C11.1994 8.18494 11.2409 8.16755 11.278 8.15186C11.499 8.05729 11.8339 7.91436 12.2581 8.06704C12.5412 8.16798 12.7939 8.37452 13.1895 8.74562C14.0009 9.50563 15.1096 11.1983 15.5186 12.0295C15.7932 12.5898 15.9749 12.9596 15.9754 13.3744C15.9754 13.86 15.7182 14.2345 15.4061 14.6387C15.3476 14.7146 15.2895 14.7871 15.2333 14.8575C14.8935 15.2816 14.8189 15.4042 14.868 15.623C14.9676 16.0628 15.7101 17.3721 16.9305 18.5286C18.1508 19.6852 19.4895 20.3459 19.9543 20.4401C20.1945 20.4889 20.3263 20.4151 20.7871 20.0809C20.8532 20.0329 20.921 19.9833 20.992 19.9337C21.468 19.5974 21.844 19.3595 22.3432 19.3595H22.3459C22.7803 19.3595 23.1523 19.5384 23.7685 19.8336C24.5722 20.2187 26.4079 21.2582 27.2129 22.0297C27.6045 22.4046 27.8229 22.6438 27.9296 22.9122C28.0903 23.3164 27.939 23.6332 27.8403 23.8453C27.8238 23.8805 27.8055 23.9191 27.7863 23.9619C27.5983 24.385 27.3698 24.7907 27.1035 25.174C26.6289 25.8484 26.148 26.3705 25.3451 26.7254C24.9329 26.9107 24.4817 27.0045 24.0257 26.9998Z"
              fill="white"/>
    </g>
</svg>
