<svg width="20" height="20" viewBox="0 0 20 20" fill="none" xmlns="http://www.w3.org/2000/svg">
<path id="Vector" d="M19.4727 17.9603L13.1323 11.9244C14.1162 10.7135 14.6484 9.23295 14.6484 7.67573C14.6484 5.81172 13.8843 4.06392 12.5024 2.7461C11.1206 1.42828 9.27979 0.703125 7.32422 0.703125C5.36865 0.703125 3.52783 1.4306 2.146 2.7461C0.761719 4.0616 0 5.81172 0 7.67573C0 9.53742 0.76416 11.2899 2.146 12.6054C3.52783 13.9232 5.36621 14.6483 7.32422 14.6483C8.95996 14.6483 10.5127 14.1417 11.7847 13.2073L18.125 19.241C18.1436 19.2587 18.1657 19.2727 18.19 19.2823C18.2143 19.2919 18.2403 19.2968 18.2666 19.2968C18.2929 19.2968 18.3189 19.2919 18.3432 19.2823C18.3675 19.2727 18.3896 19.2587 18.4082 19.241L19.4727 18.2299C19.4913 18.2122 19.506 18.1912 19.5161 18.1681C19.5262 18.145 19.5313 18.1202 19.5313 18.0951C19.5313 18.0701 19.5262 18.0453 19.5161 18.0222C19.506 17.999 19.4913 17.978 19.4727 17.9603ZM11.1914 11.3573C10.1563 12.3404 8.78418 12.8819 7.32422 12.8819C5.86426 12.8819 4.49219 12.3404 3.45703 11.3573C2.42432 10.3718 1.85547 9.06561 1.85547 7.67573C1.85547 6.28586 2.42432 4.97733 3.45703 3.9942C4.49219 3.01106 5.86426 2.46952 7.32422 2.46952C8.78418 2.46952 10.1587 3.00873 11.1914 3.9942C12.2241 4.97966 12.793 6.28586 12.793 7.67573C12.793 9.06561 12.2241 10.3741 11.1914 11.3573Z" fill="#161616"/>
</svg>
