<svg width="27" height="20" viewBox="0 0 27 20" fill="none" xmlns="http://www.w3.org/2000/svg">
<g id="gb - large">
<g id="flag">
<rect id="mask" x="0.666687" width="25.7143" height="20" fill="#2B409A"/>
<mask id="mask0_423_695" style="mask-type:alpha" maskUnits="userSpaceOnUse" x="0" y="0" width="27" height="20">
<rect id="mask_2" x="0.666687" width="25.7143" height="20" fill="white"/>
</mask>
<g mask="url(#mask0_423_695)">
<g id="contents">
<g id="stripe">
<path id="white" d="M-2.19702 18.5713L3.46148 21.053L26.5089 2.6983L29.4936 -0.989607L23.4427 -1.81907L14.0422 6.09049L6.47576 11.4197L-2.19702 18.5713Z" fill="#F7FCFF"/>
<path id="red" d="M-1.42206 20.3101L1.46069 21.7502L28.4221 -1.3322H24.3744L-1.42206 20.3101Z" fill="#F50100"/>
</g>
<g id="stripe_2">
<path id="white_2" d="M29.2434 18.5713L23.5849 21.053L0.537483 2.6983L-2.44725 -0.989607L3.60371 -1.81907L13.0042 6.09049L20.5706 11.4197L29.2434 18.5713Z" fill="#F7FCFF"/>
<path id="red_2" d="M29.0502 19.8191L26.1674 21.2593L14.687 11.3765L11.2832 10.2723L-2.7346 -0.977032H1.3131L15.3231 10.0053L19.0444 11.3293L29.0502 19.8191Z" fill="#F50100"/>
</g>
<g id="cross">
<g id="red_3">
<mask id="path-7-outside-1_423_695" maskUnits="userSpaceOnUse" x="-1.3335" y="-2" width="30" height="24" fill="black">
<rect fill="white" x="-1.3335" y="-2" width="30" height="24"/>
<path fill-rule="evenodd" clip-rule="evenodd" d="M14.9299 0H12.0728V8.57143H0.666504V11.4286H12.0728V20H14.9299V11.4286H26.3808V8.57143H14.9299V0Z"/>
</mask>
<path fill-rule="evenodd" clip-rule="evenodd" d="M14.9299 0H12.0728V8.57143H0.666504V11.4286H12.0728V20H14.9299V11.4286H26.3808V8.57143H14.9299V0Z" fill="#F50100"/>
<path d="M12.0728 0V-1.5H10.5728V0H12.0728ZM14.9299 0H16.4299V-1.5H14.9299V0ZM12.0728 8.57143V10.0714H13.5728V8.57143H12.0728ZM0.666504 8.57143V7.07143H-0.833496V8.57143H0.666504ZM0.666504 11.4286H-0.833496V12.9286H0.666504V11.4286ZM12.0728 11.4286H13.5728V9.92857H12.0728V11.4286ZM12.0728 20H10.5728V21.5H12.0728V20ZM14.9299 20V21.5H16.4299V20H14.9299ZM14.9299 11.4286V9.92857H13.4299V11.4286H14.9299ZM26.3808 11.4286V12.9286H27.8808V11.4286H26.3808ZM26.3808 8.57143H27.8808V7.07143H26.3808V8.57143ZM14.9299 8.57143H13.4299V10.0714H14.9299V8.57143ZM12.0728 1.5H14.9299V-1.5H12.0728V1.5ZM13.5728 8.57143V0H10.5728V8.57143H13.5728ZM0.666504 10.0714H12.0728V7.07143H0.666504V10.0714ZM2.1665 11.4286V8.57143H-0.833496V11.4286H2.1665ZM12.0728 9.92857H0.666504V12.9286H12.0728V9.92857ZM13.5728 20V11.4286H10.5728V20H13.5728ZM14.9299 18.5H12.0728V21.5H14.9299V18.5ZM13.4299 11.4286V20H16.4299V11.4286H13.4299ZM26.3808 9.92857H14.9299V12.9286H26.3808V9.92857ZM24.8808 8.57143V11.4286H27.8808V8.57143H24.8808ZM14.9299 10.0714H26.3808V7.07143H14.9299V10.0714ZM13.4299 0V8.57143H16.4299V0H13.4299Z" fill="#F7FCFF" mask="url(#path-7-outside-1_423_695)"/>
</g>
</g>
</g>
</g>
</g>
</g>
</svg>
