<svg width="20" height="20" viewBox="0 0 20 20" fill="none" xmlns="http://www.w3.org/2000/svg">    <circle opacity="0.5" cx="10" cy="10" r="10" fill="#5C5C5C"/>    <g clip-path="url(#clip0_423_674)">        <path d="M10.0332 6.521H10.0913C10.6274 6.52295 13.3437 6.54252 14.0761 6.73947C14.2975 6.79958 14.4992 6.91675 14.6612 7.07926C14.8231 7.24177 14.9396 7.44394 14.9989 7.66556C15.0648 7.91339 15.1111 8.24143 15.1424 8.57991L15.1489 8.64774L15.1632 8.8173L15.1685 8.88513C15.2109 9.48121 15.2161 10.0395 15.2167 10.1614V10.2103C15.2161 10.3369 15.2102 10.933 15.1632 11.5538L15.158 11.6223L15.1522 11.6901C15.1195 12.0632 15.0713 12.4336 14.9989 12.7062C14.9397 12.9279 14.8234 13.1302 14.6614 13.2927C14.4994 13.4553 14.2976 13.5724 14.0761 13.6323C13.3195 13.8358 10.4441 13.8501 10.0456 13.8508H9.95303C9.75151 13.8508 8.91803 13.8469 8.04411 13.8169L7.93324 13.813L7.87651 13.8103L7.76498 13.8058L7.65346 13.8012C6.92955 13.7693 6.2402 13.7177 5.92259 13.6316C5.70117 13.5718 5.49937 13.4548 5.33741 13.2923C5.17545 13.1299 5.05901 12.9278 4.99977 12.7062C4.92738 12.4343 4.87911 12.0632 4.84651 11.6901L4.84129 11.6216L4.83607 11.5538C4.80388 11.1119 4.78605 10.6691 4.78259 10.226L4.78259 10.1458C4.7839 10.0056 4.78911 9.521 4.82433 8.98621L4.8289 8.91904L4.83085 8.88513L4.83607 8.8173L4.85042 8.64774L4.85694 8.57991C4.88824 8.24143 4.93455 7.91274 5.00042 7.66556C5.05957 7.44385 5.17596 7.24159 5.33793 7.07905C5.4999 6.91651 5.70175 6.7994 5.92324 6.73947C6.24085 6.65469 6.9302 6.60252 7.65411 6.56991L7.76498 6.56534L7.87716 6.56143L7.93324 6.55947L8.04477 6.55491C8.66545 6.53494 9.28638 6.52385 9.90738 6.52165H10.0332V6.521ZM8.95651 8.61447V11.7566L11.6676 10.1862L8.95651 8.61447Z" fill="white"/>    </g>    <defs>        <clipPath id="clip0_423_674">            <rect width="10.4348" height="10.4348" fill="white" transform="translate(4.78259 5.21729)"/>        </clipPath>    </defs></svg>