<svg width="20" height="20" viewBox="0 0 20 20" fill="none" xmlns="http://www.w3.org/2000/svg">
<g id="Component 11">
<circle id="Ellipse 17" opacity="0.5" cx="10" cy="10" r="10" fill="#5C5C5C"/>
<path id="Vector" d="M10.8062 9.47352V9.20636H11.6481V12.9596H11.1669C11.0716 12.9598 10.9802 12.9241 10.9126 12.8603C10.845 12.7965 10.8067 12.7099 10.8062 12.6194V12.62C10.4548 12.8644 10.0305 12.9958 9.595 12.9953C9.05086 12.9953 8.52899 12.79 8.1441 12.4246C7.75922 12.0593 7.54283 11.5637 7.5425 11.0468C7.54283 10.5299 7.75922 10.0343 8.1441 9.66894C8.52899 9.30356 9.05086 9.09831 9.595 9.09831C10.0303 9.09785 10.4544 9.22929 10.8056 9.47352H10.8062ZM7.32438 8V8.12171C7.32438 8.34849 7.2925 8.53372 7.13688 8.75101L7.11812 8.77119C7.06628 8.82643 7.01585 8.88284 6.96688 8.94039L4.265 12.1617H7.32438V12.6177C7.32438 12.6626 7.31504 12.7071 7.29691 12.7487C7.27878 12.7902 7.25221 12.8279 7.21871 12.8597C7.18522 12.8914 7.14546 12.9166 7.10171 12.9338C7.05796 12.9509 7.01108 12.9597 6.96375 12.9596H3V12.7447C3 12.4817 3.06875 12.3642 3.15625 12.2419L6.03562 8.8549H3.12V8H7.325H7.32438ZM12.6687 12.9596C12.5892 12.9596 12.5129 12.9296 12.4566 12.8762C12.4004 12.8227 12.3687 12.7502 12.3687 12.6747V8H13.2694V12.9596H12.6687ZM15.9331 9.07457C16.2045 9.07449 16.4732 9.12518 16.7239 9.22374C16.9746 9.32231 17.2024 9.46681 17.3944 9.64901C17.5863 9.83121 17.7386 10.0475 17.8425 10.2856C17.9464 10.5237 17.9999 10.7789 18 11.0367C18.0001 11.2944 17.9467 11.5497 17.843 11.7878C17.7392 12.026 17.5871 12.2424 17.3953 12.4247C17.2034 12.607 16.9757 12.7517 16.725 12.8504C16.4744 12.9491 16.2057 12.9999 15.9344 13C15.3864 13.0002 14.8607 12.7935 14.4731 12.4256C14.0855 12.0576 13.8677 11.5584 13.8675 11.0379C13.8673 10.5173 14.0849 10.018 14.4722 9.64985C14.8596 9.28166 15.3851 9.07472 15.9331 9.07457ZM9.59563 12.1932C9.75647 12.1967 9.91642 12.1696 10.0661 12.1135C10.2157 12.0574 10.3521 11.9735 10.4672 11.8667C10.5822 11.7599 10.6736 11.6323 10.736 11.4914C10.7984 11.3506 10.8306 11.1993 10.8306 11.0465C10.8306 10.8937 10.7984 10.7424 10.736 10.6015C10.6736 10.4607 10.5822 10.3331 10.4672 10.2263C10.3521 10.1194 10.2157 10.0355 10.0661 9.97946C9.91642 9.9234 9.75647 9.89631 9.59563 9.89979C9.28022 9.9066 8.98014 10.0304 8.75961 10.2447C8.53907 10.459 8.41559 10.7468 8.41559 11.0465C8.41559 11.3462 8.53907 11.634 8.75961 11.8483C8.98014 12.0626 9.28022 12.1864 9.59563 12.1932ZM15.9331 12.1914C16.2555 12.1914 16.5647 12.0697 16.7927 11.8532C17.0207 11.6366 17.1488 11.3429 17.1488 11.0367C17.1488 10.7304 17.0207 10.4367 16.7927 10.2202C16.5647 10.0036 16.2555 9.88198 15.9331 9.88198C15.6107 9.88198 15.3015 10.0036 15.0735 10.2202C14.8456 10.4367 14.7175 10.7304 14.7175 11.0367C14.7175 11.3429 14.8456 11.6366 15.0735 11.8532C15.3015 12.0697 15.6107 12.1914 15.9331 12.1914Z" fill="white"/>
</g>
</svg>
